<svg id="Layer_1" data-name="Layer 1" xmlns="http://www.w3.org/2000/svg" viewBox="0 0 2100 900"><defs><style>.cls-1{fill:none;stroke:#000;stroke-linecap:square;stroke-miterlimit:10;stroke-width:10px;}</style></defs><title>logo</title><path class="cls-1" d="M216,702a72,72,0,0,0,144,0c0-46.54-36.79-67.79-77.79-72.71C245.32,624.86,216,596.48,216,558a72,72,0,0,1,144,0"/><circle class="cls-1" cx="576" cy="630" r="144"/><line class="cls-1" x1="612" y1="666" x2="720" y2="774"/><path class="cls-1" d="M936,486V702a72,72,0,0,1-144,0V486"/><path class="cls-1" d="M1224,774V486h54a90,90,0,0,1,0,180l90,108"/><path class="cls-1" d="M1008,774V558a72,72,0,0,1,144,0V774"/><line class="cls-1" x1="1125" y1="666" x2="1035" y2="666"/><polyline class="cls-1" points="1584 774 1440 774 1440 486 1584 486"/><line class="cls-1" x1="1548" y1="666" x2="1467" y2="666"/><path class="cls-1" d="M1656,486h72a144,144,0,0,1,0,288h-72Z"/><polyline class="cls-1" points="1584 414 1440 414 1440 126 1584 126"/><line class="cls-1" x1="1548" y1="306" x2="1467" y2="306"/><path class="cls-1" d="M720,414V126h54a90,90,0,0,1,0,180l90,108"/><polyline class="cls-1" points="1224 126 1224 414 1368 414"/><line class="cls-1" x1="576" y1="153" x2="576" y2="387"/><line class="cls-1" x1="504" y1="126" x2="648" y2="126"/><line class="cls-1" x1="504" y1="414" x2="648" y2="414"/><path class="cls-1" d="M1152,145.27a144,144,0,1,0,0,249.46"/><path class="cls-1" d="M432,145.27a144,144,0,1,0,0,249.46"/></svg>